<mxfile host="65bd71144e">
    <diagram id="BKfg3RSG44obZqyPnABy" name="Page-1">
        <mxGraphModel dx="1118" dy="484" grid="1" gridSize="10" guides="1" tooltips="1" connect="1" arrows="1" fold="1" page="0" pageScale="1" pageWidth="1169" pageHeight="827" background="#ffffff" math="0" shadow="0">
            <root>
                <mxCell id="0"/>
                <mxCell id="1" parent="0"/>
                <mxCell id="4" value="" style="edgeStyle=none;html=1;strokeColor=#000000;" edge="1" parent="1" source="2" target="3">
                    <mxGeometry relative="1" as="geometry"/>
                </mxCell>
                <mxCell id="2" value="flushPassiveEffects" style="rounded=1;whiteSpace=wrap;html=1;fillColor=#FFFFFF;fontStyle=1;fontColor=#000000;strokeColor=#000000;" vertex="1" parent="1">
                    <mxGeometry x="150" y="170" width="130" height="60" as="geometry"/>
                </mxCell>
                <mxCell id="6" value="" style="edgeStyle=none;html=1;strokeColor=#000000;fontColor=#000000;" edge="1" parent="1" source="3" target="5">
                    <mxGeometry relative="1" as="geometry"/>
                </mxCell>
                <mxCell id="8" value="" style="edgeStyle=none;html=1;strokeColor=#000000;fontColor=#000000;exitX=1;exitY=0.5;exitDx=0;exitDy=0;entryX=0;entryY=0.5;entryDx=0;entryDy=0;" edge="1" parent="1" source="3" target="7">
                    <mxGeometry relative="1" as="geometry">
                        <Array as="points">
                            <mxPoint x="520" y="340"/>
                        </Array>
                    </mxGeometry>
                </mxCell>
                <mxCell id="3" value="flushPassiveEffectsImpl" style="whiteSpace=wrap;html=1;rounded=1;strokeColor=#000000;fillColor=#FFFFFF;fontStyle=1;fontColor=#000000;" vertex="1" parent="1">
                    <mxGeometry x="360" y="170" width="160" height="60" as="geometry"/>
                </mxCell>
                <mxCell id="10" value="" style="edgeStyle=none;html=1;strokeColor=#000000;fontColor=#000000;" edge="1" parent="1" source="5" target="9">
                    <mxGeometry relative="1" as="geometry"/>
                </mxCell>
                <mxCell id="5" value="flushPassiveUnmountEffects" style="whiteSpace=wrap;html=1;fillColor=#FFFFFF;strokeColor=#000000;fontColor=#000000;rounded=1;fontStyle=1;" vertex="1" parent="1">
                    <mxGeometry x="620" y="170" width="190" height="60" as="geometry"/>
                </mxCell>
                <mxCell id="14" value="" style="edgeStyle=none;html=1;strokeColor=#000000;fontColor=#000000;" edge="1" parent="1" source="7" target="13">
                    <mxGeometry relative="1" as="geometry"/>
                </mxCell>
                <mxCell id="7" value="flushPassiveMountEffects" style="whiteSpace=wrap;html=1;fillColor=#FFFFFF;strokeColor=#000000;fontColor=#000000;rounded=1;fontStyle=1;" vertex="1" parent="1">
                    <mxGeometry x="620" y="310" width="160" height="60" as="geometry"/>
                </mxCell>
                <mxCell id="12" value="" style="edgeStyle=none;html=1;strokeColor=#000000;fontColor=#000000;" edge="1" parent="1" source="9" target="11">
                    <mxGeometry relative="1" as="geometry"/>
                </mxCell>
                <mxCell id="9" value="commitPassiveUnmountOnFiber" style="whiteSpace=wrap;html=1;fillColor=#FFFFFF;strokeColor=#000000;fontColor=#000000;rounded=1;fontStyle=1;" vertex="1" parent="1">
                    <mxGeometry x="840" y="170" width="215" height="60" as="geometry"/>
                </mxCell>
                <mxCell id="11" value="commitHookEffectListUnmount" style="whiteSpace=wrap;html=1;fillColor=#FFFFFF;strokeColor=#000000;fontColor=#000000;rounded=1;fontStyle=1;" vertex="1" parent="1">
                    <mxGeometry x="1110" y="170" width="212.5" height="60" as="geometry"/>
                </mxCell>
                <mxCell id="16" value="" style="edgeStyle=none;html=1;strokeColor=#000000;fontColor=#000000;" edge="1" parent="1" source="13" target="15">
                    <mxGeometry relative="1" as="geometry"/>
                </mxCell>
                <mxCell id="13" value="commitPassiveMountOnFiber" style="whiteSpace=wrap;html=1;fillColor=#FFFFFF;strokeColor=#000000;fontColor=#000000;rounded=1;fontStyle=1;" vertex="1" parent="1">
                    <mxGeometry x="830" y="310" width="195" height="60" as="geometry"/>
                </mxCell>
                <mxCell id="15" value="commitHookEffectListMount" style="whiteSpace=wrap;html=1;fillColor=#FFFFFF;strokeColor=#000000;fontColor=#000000;rounded=1;fontStyle=1;" vertex="1" parent="1">
                    <mxGeometry x="1080" y="310" width="172.5" height="60" as="geometry"/>
                </mxCell>
            </root>
        </mxGraphModel>
    </diagram>
</mxfile>